<svg width="128" height="128" viewBox="0 0 128 128" fill="none" xmlns="http://www.w3.org/2000/svg">
    <g clip-path="url(#clip0)">
    <circle cx="64" cy="64" r="64" fill="white"/>
    <circle cx="64" cy="64" r="25" fill="#373636"/>
    <circle cx="63.5" cy="63.5" r="17.5" fill="#7E7D7D"/>
    <path d="M77.7349 9.00001C87.3316 31.4979 73.1753 40.3478 64.8439 42.2125C71.7714 41.7022 87.1772 39.1022 90.7874 42.6472C95.3 47.0785 92.1699 71.7047 77.687 77.427C63.204 83.1492 47.4402 70.9938 29 108.729C39.106 113.482 64.7647 119.312 84.44 106.883C107.785 92.1353 102.748 54.6136 97.2248 37.4454C93.0291 18.6999 83.951 12.2231 77.7349 9.00001Z" fill="#5578EE"/>
    <circle cx="63.5" cy="63.5" r="7.5" fill="#A1A1A1"/>
    <circle cx="70.5" cy="55.5" r="4.5" fill="white"/>
    </g>
    <defs>
    <clipPath id="clip0">
    <rect width="128" height="128" fill="white"/>
    </clipPath>
    </defs>
    </svg>